<svg width="1851" height="981" viewBox="0 0 1851 981" fill="none" xmlns="http://www.w3.org/2000/svg">
<rect width="1853" height="981" fill="#FCFDFF"/>
<path d="M0.00146484 486L0.00230408 984H1545V682C1545 682 863 730 0.00146484 486Z" fill="#DFEBE6"/>
<g clip-path="url(#clip0)">
<mask id="path-3-outside-1" maskUnits="userSpaceOnUse" x="78" y="562" width="50" height="25" fill="black">
<rect fill="white" x="78" y="562" width="50" height="25"/>
<path fill-rule="evenodd" clip-rule="evenodd" d="M122.602 583H82.8027C82.2922 582.117 82 581.093 82 580C82 576.686 84.6863 574 88 574C88.779 574 89.5234 574.148 90.2063 574.419C91.1719 569.617 95.4136 566 100.5 566C102.666 566 104.679 566.656 106.351 567.78C108.13 566.653 110.239 566 112.5 566C118.851 566 124 571.149 124 577.5C124 579.492 123.493 581.366 122.602 583Z"/>
</mask>
<path fill-rule="evenodd" clip-rule="evenodd" d="M122.602 583H82.8027C82.2922 582.117 82 581.093 82 580C82 576.686 84.6863 574 88 574C88.779 574 89.5234 574.148 90.2063 574.419C91.1719 569.617 95.4136 566 100.5 566C102.666 566 104.679 566.656 106.351 567.78C108.13 566.653 110.239 566 112.5 566C118.851 566 124 571.149 124 577.5C124 579.492 123.493 581.366 122.602 583Z" fill="#DFEBE6"/>
<path d="M122.602 583V587H124.976L126.113 584.916L122.602 583ZM82.8027 583L79.3403 585.003L80.4955 587H82.8027V583ZM90.2063 574.419L88.7348 578.138L93.1844 579.898L94.1278 575.207L90.2063 574.419ZM106.351 567.78L104.119 571.1L106.287 572.557L108.493 571.158L106.351 567.78ZM122.602 579H82.8027V587H122.602V579ZM78 580C78 581.815 78.4871 583.528 79.3403 585.003L86.2651 580.997C86.0973 580.707 86 580.371 86 580H78ZM88 570C82.4772 570 78 574.477 78 580H86C86 578.895 86.8954 578 88 578V570ZM91.6778 570.699C90.5341 570.247 89.291 570 88 570V578C88.267 578 88.5126 578.05 88.7348 578.138L91.6778 570.699ZM100.5 562C93.4713 562 87.6187 566.997 86.2848 573.63L94.1278 575.207C94.7252 572.236 97.3559 570 100.5 570V562ZM108.583 564.461C106.272 562.907 103.486 562 100.5 562V570C101.847 570 103.086 570.405 104.119 571.1L108.583 564.461ZM112.5 562C109.458 562 106.61 562.88 104.21 564.402L108.493 571.158C109.65 570.425 111.019 570 112.5 570V562ZM128 577.5C128 568.94 121.06 562 112.5 562V570C116.642 570 120 573.358 120 577.5H128ZM126.113 584.916C127.317 582.709 128 580.178 128 577.5H120C120 578.806 119.669 580.023 119.091 581.084L126.113 584.916Z" fill="#D1E0DA" mask="url(#path-3-outside-1)"/>
<mask id="path-5-outside-2" maskUnits="userSpaceOnUse" x="171.047" y="556.508" width="51" height="31" fill="black">
<rect fill="white" x="171.047" y="556.508" width="51" height="31"/>
<path fill-rule="evenodd" clip-rule="evenodd" d="M217.027 582.916H175.69C175.281 582.209 175.047 581.389 175.047 580.515C175.047 578.056 176.896 576.028 179.28 575.747C179.128 574.959 179.049 574.145 179.049 573.312C179.049 566.241 184.781 560.508 191.853 560.508C198.374 560.508 203.756 565.383 204.555 571.687C205.688 571.188 206.941 570.912 208.258 570.912C213.341 570.912 217.461 575.032 217.461 580.115C217.461 581.091 217.309 582.032 217.027 582.916Z"/>
</mask>
<path fill-rule="evenodd" clip-rule="evenodd" d="M217.027 582.916H175.69C175.281 582.209 175.047 581.389 175.047 580.515C175.047 578.056 176.896 576.028 179.28 575.747C179.128 574.959 179.049 574.145 179.049 573.312C179.049 566.241 184.781 560.508 191.853 560.508C198.374 560.508 203.756 565.383 204.555 571.687C205.688 571.188 206.941 570.912 208.258 570.912C213.341 570.912 217.461 575.032 217.461 580.115C217.461 581.091 217.309 582.032 217.027 582.916Z" fill="#DFEBE6"/>
<path d="M217.027 582.916V586.916H219.949L220.838 584.132L217.027 582.916ZM175.69 582.916L172.227 584.918L173.383 586.916H175.69V582.916ZM179.28 575.747L179.749 579.719L184.021 579.214L183.208 574.991L179.28 575.747ZM204.555 571.687L200.586 572.19L201.26 577.507L206.166 575.348L204.555 571.687ZM217.027 578.916H175.69V586.916H217.027V578.916ZM171.047 580.515C171.047 582.111 171.476 583.62 172.227 584.918L179.152 580.913C179.086 580.799 179.047 580.667 179.047 580.515H171.047ZM178.811 571.774C174.437 572.291 171.047 576.004 171.047 580.515H179.047C179.047 580.107 179.355 579.765 179.749 579.719L178.811 571.774ZM175.049 573.312C175.049 574.4 175.152 575.467 175.352 576.503L183.208 574.991C183.104 574.45 183.049 573.89 183.049 573.312H175.049ZM191.853 556.508C182.572 556.508 175.049 564.032 175.049 573.312H183.049C183.049 568.45 186.99 564.508 191.853 564.508V556.508ZM208.523 571.184C207.474 562.907 200.414 556.508 191.853 556.508V564.508C196.334 564.508 200.038 567.859 200.586 572.19L208.523 571.184ZM208.258 566.912C206.375 566.912 204.575 567.308 202.944 568.026L206.166 575.348C206.801 575.069 207.506 574.912 208.258 574.912V566.912ZM221.461 580.115C221.461 572.823 215.55 566.912 208.258 566.912V574.912C211.132 574.912 213.461 577.241 213.461 580.115H221.461ZM220.838 584.132C221.244 582.86 221.461 581.509 221.461 580.115H213.461C213.461 580.674 213.374 581.205 213.216 581.699L220.838 584.132Z" fill="#D1E0DA" mask="url(#path-5-outside-2)"/>
<mask id="path-7-outside-3" maskUnits="userSpaceOnUse" x="142.9" y="457.744" width="84.1184" height="94.5786" fill="black">
<rect fill="white" x="142.9" y="457.744" width="84.1184" height="94.5786"/>
<path fill-rule="evenodd" clip-rule="evenodd" d="M199.435 487.532C201.455 486.904 203.199 485.43 204.101 483.335C205.739 479.53 203.983 475.118 200.178 473.48C196.374 471.842 191.962 473.598 190.324 477.403C189.259 479.876 189.628 482.606 191.062 484.663C182.32 483.675 173.597 488.435 169.938 496.933C168.989 499.138 168.456 501.418 168.306 503.685C162.384 503.77 156.779 507.265 154.285 513.057C150.9 520.92 154.53 530.038 162.392 533.423C168.148 535.902 174.577 534.621 178.937 530.672C180.234 532.655 182.109 534.291 184.449 535.299C190.789 538.029 198.143 535.102 200.873 528.761C201.962 526.231 202.151 523.54 201.582 521.046C204.124 519.014 206.219 516.345 207.596 513.147C211.688 503.644 208.031 492.755 199.435 487.532Z"/>
</mask>
<path fill-rule="evenodd" clip-rule="evenodd" d="M199.435 487.532C201.455 486.904 203.199 485.43 204.101 483.335C205.739 479.53 203.983 475.118 200.178 473.48C196.374 471.842 191.962 473.598 190.324 477.403C189.259 479.876 189.628 482.606 191.062 484.663C182.32 483.675 173.597 488.435 169.938 496.933C168.989 499.138 168.456 501.418 168.306 503.685C162.384 503.77 156.779 507.265 154.285 513.057C150.9 520.92 154.53 530.038 162.392 533.423C168.148 535.902 174.577 534.621 178.937 530.672C180.234 532.655 182.109 534.291 184.449 535.299C190.789 538.029 198.143 535.102 200.873 528.761C201.962 526.231 202.151 523.54 201.582 521.046C204.124 519.014 206.219 516.345 207.596 513.147C211.688 503.644 208.031 492.755 199.435 487.532Z" fill="#DFEBE6"/>
<path d="M199.435 487.532L198.248 483.712L189.779 486.345L197.358 490.95L199.435 487.532ZM191.062 484.663L190.613 488.638L199.401 489.631L194.344 482.376L191.062 484.663ZM168.306 503.685L168.364 507.684L172.054 507.631L172.298 503.949L168.306 503.685ZM178.937 530.672L182.284 528.482L179.721 524.564L176.252 527.707L178.937 530.672ZM201.582 521.046L199.084 517.922L197.123 519.489L197.682 521.936L201.582 521.046ZM200.427 481.753C200.006 482.73 199.2 483.416 198.248 483.712L200.623 491.351C203.711 490.391 206.391 488.13 207.775 484.916L200.427 481.753ZM198.596 477.154C200.372 477.918 201.191 479.977 200.427 481.753L207.775 484.916C210.286 479.083 207.594 472.318 201.76 469.806L198.596 477.154ZM193.998 478.984C194.762 477.209 196.821 476.389 198.596 477.154L201.76 469.806C195.927 467.294 189.161 469.987 186.65 475.821L193.998 478.984ZM194.344 482.376C193.668 481.406 193.502 480.134 193.998 478.984L186.65 475.821C185.015 479.617 185.589 483.805 187.781 486.951L194.344 482.376ZM191.512 480.689C181.067 479.508 170.64 485.189 166.264 495.351L173.612 498.515C176.555 491.68 183.574 487.842 190.613 488.638L191.512 480.689ZM166.264 495.351C165.132 497.98 164.495 500.706 164.315 503.42L172.298 503.949C172.418 502.13 172.845 500.296 173.612 498.515L166.264 495.351ZM168.248 499.685C160.807 499.793 153.751 504.183 150.612 511.475L157.959 514.639C159.807 510.347 163.961 507.748 168.364 507.684L168.248 499.685ZM150.612 511.475C146.353 521.367 150.919 532.838 160.81 537.097L163.974 529.749C158.14 527.238 155.448 520.472 157.959 514.639L150.612 511.475ZM160.81 537.097C168.057 540.217 176.144 538.598 181.622 533.636L176.252 527.707C173.009 530.643 168.239 531.586 163.974 529.749L160.81 537.097ZM175.589 532.861C177.304 535.482 179.784 537.645 182.867 538.973L186.03 531.625C184.434 530.938 183.165 529.828 182.284 528.482L175.589 532.861ZM182.867 538.973C191.237 542.577 200.943 538.713 204.547 530.343L197.199 527.179C195.343 531.491 190.342 533.481 186.03 531.625L182.867 538.973ZM204.547 530.343C205.983 527.008 206.233 523.45 205.481 520.156L197.682 521.936C198.069 523.631 197.942 525.455 197.199 527.179L204.547 530.343ZM204.079 524.171C207.122 521.739 209.627 518.545 211.27 514.729L203.922 511.565C202.811 514.146 201.127 516.289 199.084 517.922L204.079 524.171ZM211.27 514.729C216.161 503.369 211.789 490.357 201.512 484.113L197.358 490.95C204.274 495.152 207.214 503.92 203.922 511.565L211.27 514.729Z" fill="#D1E0DA" mask="url(#path-7-outside-3)"/>
<path d="M159.42 509C155.34 509 152.117 512.479 152.414 516.543C154.337 542.82 154.348 557.745 152.544 577.357C152.169 581.43 155.354 585 159.481 585C163.075 585 166.084 582.249 166.384 578.658C168.393 554.665 168.409 539.374 166.391 515.389C166.086 511.765 163.035 509 159.42 509Z" fill="#EEF6F3" stroke="#D1E0DA" stroke-width="4"/>
<mask id="path-10-outside-4" maskUnits="userSpaceOnUse" x="117" y="516" width="47" height="41" fill="black">
<rect fill="white" x="117" y="516" width="47" height="41"/>
<path fill-rule="evenodd" clip-rule="evenodd" d="M144.956 533.031C144.985 532.691 145 532.347 145 532C145 525.373 139.627 520 133 520C126.373 520 121 525.373 121 532C121 536.87 123.901 541.062 128.069 542.943C128.024 543.289 128 543.642 128 544C128 548.418 131.582 552 136 552C138.252 552 140.286 551.07 141.74 549.573C143.66 551.679 146.426 553 149.5 553C155.299 553 160 548.299 160 542.5C160 536.701 155.299 532 149.5 532C147.872 532 146.331 532.37 144.956 533.031Z"/>
</mask>
<path fill-rule="evenodd" clip-rule="evenodd" d="M144.956 533.031C144.985 532.691 145 532.347 145 532C145 525.373 139.627 520 133 520C126.373 520 121 525.373 121 532C121 536.87 123.901 541.062 128.069 542.943C128.024 543.289 128 543.642 128 544C128 548.418 131.582 552 136 552C138.252 552 140.286 551.07 141.74 549.573C143.66 551.679 146.426 553 149.5 553C155.299 553 160 548.299 160 542.5C160 536.701 155.299 532 149.5 532C147.872 532 146.331 532.37 144.956 533.031Z" fill="#DFEBE6"/>
<path d="M144.956 533.031L140.971 532.692L140.377 539.671L146.689 536.636L144.956 533.031ZM128.069 542.943L132.035 543.467L132.424 540.52L129.715 539.297L128.069 542.943ZM141.74 549.573L144.695 546.878L141.831 543.737L138.87 546.786L141.74 549.573ZM148.942 533.371C148.98 532.918 149 532.461 149 532H141C141 532.234 140.99 532.465 140.971 532.692L148.942 533.371ZM149 532C149 523.163 141.837 516 133 516V524C137.418 524 141 527.582 141 532H149ZM133 516C124.163 516 117 523.163 117 532H125C125 527.582 128.582 524 133 524V516ZM117 532C117 538.499 120.875 544.085 126.424 546.589L129.715 539.297C126.927 538.039 125 535.24 125 532H117ZM124.104 542.42C124.035 542.939 124 543.466 124 544H132C132 543.817 132.012 543.639 132.035 543.467L124.104 542.42ZM124 544C124 550.627 129.373 556 136 556V548C133.791 548 132 546.209 132 544H124ZM136 556C139.377 556 142.433 554.6 144.609 552.36L138.87 546.786C138.138 547.54 137.126 548 136 548V556ZM149.5 549C147.597 549 145.889 548.187 144.695 546.878L138.784 552.268C141.43 555.17 145.254 557 149.5 557V549ZM156 542.5C156 546.09 153.09 549 149.5 549V557C157.508 557 164 550.508 164 542.5H156ZM149.5 536C153.09 536 156 538.91 156 542.5H164C164 534.492 157.508 528 149.5 528V536ZM146.689 536.636C147.535 536.23 148.485 536 149.5 536V528C147.26 528 145.127 528.511 143.223 529.426L146.689 536.636Z" fill="#D1E0DA" mask="url(#path-10-outside-4)"/>
<mask id="path-12-outside-5" maskUnits="userSpaceOnUse" x="91" y="467" width="81" height="62" fill="black">
<rect fill="white" x="91" y="467" width="81" height="62"/>
<path fill-rule="evenodd" clip-rule="evenodd" d="M120.51 507.325C118.421 508.126 116.153 508.565 113.783 508.565C103.409 508.565 95 500.156 95 489.783C95 479.409 103.409 471 113.783 471C120.952 471 127.183 475.016 130.348 480.922C134.172 478.362 138.77 476.87 143.717 476.87C157.008 476.87 167.783 487.644 167.783 500.935C167.783 514.226 157.008 525 143.717 525C132.639 525 123.309 517.514 120.51 507.325Z"/>
</mask>
<path fill-rule="evenodd" clip-rule="evenodd" d="M120.51 507.325C118.421 508.126 116.153 508.565 113.783 508.565C103.409 508.565 95 500.156 95 489.783C95 479.409 103.409 471 113.783 471C120.952 471 127.183 475.016 130.348 480.922C134.172 478.362 138.77 476.87 143.717 476.87C157.008 476.87 167.783 487.644 167.783 500.935C167.783 514.226 157.008 525 143.717 525C132.639 525 123.309 517.514 120.51 507.325Z" fill="#DFEBE6"/>
<path d="M120.51 507.325L124.367 506.265L123.198 502.009L119.077 503.59L120.51 507.325ZM130.348 480.922L126.823 482.812L128.907 486.7L132.573 484.246L130.348 480.922ZM119.077 503.59C117.438 504.219 115.656 504.565 113.783 504.565V512.565C116.651 512.565 119.404 512.033 121.943 511.059L119.077 503.59ZM113.783 504.565C105.618 504.565 99 497.947 99 489.783H91C91 502.365 101.2 512.565 113.783 512.565V504.565ZM99 489.783C99 481.618 105.618 475 113.783 475V467C101.2 467 91 477.2 91 489.783H99ZM113.783 475C119.419 475 124.326 478.154 126.823 482.812L133.873 479.032C130.039 471.879 122.484 467 113.783 467V475ZM132.573 484.246C135.759 482.113 139.587 480.87 143.717 480.87V472.87C137.954 472.87 132.585 474.611 128.123 477.598L132.573 484.246ZM143.717 480.87C154.799 480.87 163.783 489.853 163.783 500.935H171.783C171.783 485.435 159.217 472.87 143.717 472.87V480.87ZM163.783 500.935C163.783 512.016 154.799 521 143.717 521V529C159.217 529 171.783 516.435 171.783 500.935H163.783ZM143.717 521C134.486 521 126.701 514.763 124.367 506.265L116.653 508.384C119.917 520.266 130.792 529 143.717 529V521Z" fill="#D1E0DA" mask="url(#path-12-outside-5)"/>
<mask id="path-14-outside-6" maskUnits="userSpaceOnUse" x="114" y="425.253" width="96" height="81" fill="black">
<rect fill="white" x="114" y="425.253" width="96" height="81"/>
<path fill-rule="evenodd" clip-rule="evenodd" d="M132.332 453.011C132.166 451.96 132.08 450.884 132.08 449.787C132.08 438.447 141.273 429.253 152.613 429.253C163.141 429.253 171.819 437.177 173.008 447.386C174.76 447.037 176.572 446.853 178.427 446.853C193.655 446.853 206 459.198 206 474.427C206 489.655 193.655 502 178.427 502C168.972 502 160.629 497.242 155.662 489.989C151.663 493.797 146.251 496.133 140.293 496.133C127.981 496.133 118 486.152 118 473.84C118 464.333 123.951 456.216 132.332 453.011Z"/>
</mask>
<path fill-rule="evenodd" clip-rule="evenodd" d="M132.332 453.011C132.166 451.96 132.08 450.884 132.08 449.787C132.08 438.447 141.273 429.253 152.613 429.253C163.141 429.253 171.819 437.177 173.008 447.386C174.76 447.037 176.572 446.853 178.427 446.853C193.655 446.853 206 459.198 206 474.427C206 489.655 193.655 502 178.427 502C168.972 502 160.629 497.242 155.662 489.989C151.663 493.797 146.251 496.133 140.293 496.133C127.981 496.133 118 486.152 118 473.84C118 464.333 123.951 456.216 132.332 453.011Z" fill="#DFEBE6"/>
<path d="M132.332 453.011L133.76 456.747L136.788 455.589L136.283 452.387L132.332 453.011ZM173.008 447.386L169.035 447.848L169.536 452.156L173.789 451.309L173.008 447.386ZM155.662 489.989L158.962 487.729L156.307 483.853L152.904 487.092L155.662 489.989ZM136.283 452.387C136.15 451.543 136.08 450.674 136.08 449.787H128.08C128.08 451.093 128.182 452.378 128.38 453.634L136.283 452.387ZM136.08 449.787C136.08 440.656 143.482 433.253 152.613 433.253V425.253C139.064 425.253 128.08 436.237 128.08 449.787H136.08ZM152.613 433.253C161.088 433.253 168.078 439.632 169.035 447.848L176.981 446.923C175.56 434.721 165.195 425.253 152.613 425.253V433.253ZM173.789 451.309C175.286 451.01 176.836 450.853 178.427 450.853V442.853C176.308 442.853 174.234 443.063 172.226 443.463L173.789 451.309ZM178.427 450.853C191.446 450.853 202 461.408 202 474.427H210C210 456.989 195.864 442.853 178.427 442.853V450.853ZM202 474.427C202 487.446 191.446 498 178.427 498V506C195.864 506 210 491.864 210 474.427H202ZM178.427 498C170.347 498 163.216 493.939 158.962 487.729L152.362 492.25C158.043 500.544 167.597 506 178.427 506V498ZM152.904 487.092C149.619 490.22 145.184 492.133 140.293 492.133V500.133C147.318 500.133 153.707 497.373 158.42 492.887L152.904 487.092ZM140.293 492.133C130.19 492.133 122 483.943 122 473.84H114C114 488.361 125.772 500.133 140.293 500.133V492.133ZM122 473.84C122 466.045 126.877 459.379 133.76 456.747L130.903 449.274C121.025 453.052 114 462.621 114 473.84H122Z" fill="#D1E0DA" mask="url(#path-14-outside-6)"/>
</g>
<path d="M449 480C285 480 173 638 1 732V984H1851V580C1851 580 1732.9 662.798 1615 668C663 710 777 480 449 480Z" fill="#E6F0EC"/>
<path d="M357 640C193 640 173 680 1 774V984H1851V800C1816.33 782.667 1711.8 748 1571 748C1395 748 1133 886 1015 888C897 890 521 640 357 640Z" fill="#EEF6F3"/>
<g clip-path="url(#clip1)">
<path d="M1166.44 661.251C1163.66 664.601 1163.43 669.457 1166.06 673.013C1178.36 689.648 1188.42 698.045 1206.17 706.402C1210.14 708.269 1214.8 707.124 1217.55 703.813C1221.7 698.823 1219.85 691.347 1214.22 688.5C1208.65 685.68 1201.72 681.829 1197.07 678.058C1191.9 673.865 1186.19 667.052 1182.04 661.674C1178.21 656.701 1170.57 656.288 1166.44 661.251Z" fill="#EEF6F3" stroke="#D1E0DA" stroke-width="5"/>
<path d="M1214.32 638.5C1207.85 638.5 1202.8 644.076 1203.33 650.494C1204.23 661.233 1205.52 679.017 1205.5 691.997C1205.49 704.651 1204.22 721.959 1203.34 732.506C1202.8 738.927 1207.85 744.5 1214.33 744.5C1219.96 744.5 1224.7 740.218 1225.18 734.572C1226.06 724.272 1227.48 705.575 1227.5 692.003C1227.52 678.093 1226.07 658.902 1225.18 648.428C1224.7 642.778 1219.96 638.5 1214.32 638.5Z" fill="#EEF6F3" stroke="#D1E0DA" stroke-width="5"/>
<mask id="path-20-outside-7" maskUnits="userSpaceOnUse" x="1170.44" y="499.437" width="166.434" height="180.115" fill="black">
<rect fill="white" x="1170.44" y="499.437" width="166.434" height="180.115"/>
<path fill-rule="evenodd" clip-rule="evenodd" d="M1243.31 543.741C1242.44 545.78 1241.82 547.862 1241.43 549.955C1224.03 549.389 1207.26 559.369 1200.01 576.336C1194.13 590.073 1195.87 605.155 1203.34 616.868C1203.27 617.033 1203.19 617.199 1203.12 617.367C1198.34 628.539 1203.53 641.468 1214.7 646.246C1225.09 650.69 1237 646.519 1242.46 636.928C1245.51 641.323 1249.79 644.942 1255.07 647.202C1270.05 653.609 1287.39 646.659 1293.8 631.68C1296.44 625.495 1296.81 618.909 1295.28 612.856C1300.43 610.375 1304.74 606.09 1307.17 600.419C1312.17 588.718 1307.37 575.286 1296.43 569.302C1296.83 568.54 1297.21 567.753 1297.56 566.943C1303.97 551.963 1297.02 534.626 1282.04 528.219C1267.06 521.812 1249.72 528.761 1243.31 543.741Z"/>
</mask>
<path fill-rule="evenodd" clip-rule="evenodd" d="M1243.31 543.741C1242.44 545.78 1241.82 547.862 1241.43 549.955C1224.03 549.389 1207.26 559.369 1200.01 576.336C1194.13 590.073 1195.87 605.155 1203.34 616.868C1203.27 617.033 1203.19 617.199 1203.12 617.367C1198.34 628.539 1203.53 641.468 1214.7 646.246C1225.09 650.69 1237 646.519 1242.46 636.928C1245.51 641.323 1249.79 644.942 1255.07 647.202C1270.05 653.609 1287.39 646.659 1293.8 631.68C1296.44 625.495 1296.81 618.909 1295.28 612.856C1300.43 610.375 1304.74 606.09 1307.17 600.419C1312.17 588.718 1307.37 575.286 1296.43 569.302C1296.83 568.54 1297.21 567.753 1297.56 566.943C1303.97 551.963 1297.02 534.626 1282.04 528.219C1267.06 521.812 1249.72 528.761 1243.31 543.741Z" fill="#DFEBE6"/>
<path d="M1241.43 549.955L1241.26 554.952L1245.55 555.091L1246.34 550.872L1241.43 549.955ZM1243.31 543.741L1238.72 541.775L1243.31 543.741ZM1203.34 616.868L1207.89 618.946L1209.02 616.472L1207.56 614.179L1203.34 616.868ZM1242.46 636.928L1246.56 634.076L1242.04 627.557L1238.11 634.454L1242.46 636.928ZM1295.28 612.856L1293.11 608.351L1289.43 610.123L1290.43 614.084L1295.28 612.856ZM1296.43 569.302L1292.02 566.941L1289.68 571.31L1294.03 573.689L1296.43 569.302ZM1246.34 550.872C1246.66 549.137 1247.18 547.407 1247.91 545.707L1238.72 541.775C1237.7 544.153 1236.97 546.587 1236.51 549.037L1246.34 550.872ZM1204.6 578.303C1211.02 563.293 1225.86 554.451 1241.26 554.952L1241.59 544.957C1222.2 544.327 1203.5 555.445 1195.41 574.37L1204.6 578.303ZM1207.56 614.179C1200.94 603.8 1199.4 590.456 1204.6 578.303L1195.41 574.37C1188.86 589.69 1190.81 606.51 1199.13 619.556L1207.56 614.179ZM1207.72 619.334C1207.77 619.203 1207.83 619.074 1207.89 618.946L1198.79 614.79C1198.7 614.992 1198.61 615.196 1198.52 615.401L1207.72 619.334ZM1216.66 641.649C1208.03 637.957 1204.03 627.966 1207.72 619.334L1198.52 615.401C1192.66 629.111 1199.02 644.979 1212.73 650.843L1216.66 641.649ZM1238.11 634.454C1233.89 641.861 1224.69 645.082 1216.66 641.649L1212.73 650.843C1225.48 656.298 1240.1 651.177 1246.8 639.401L1238.11 634.454ZM1257.04 642.605C1252.65 640.725 1249.09 637.723 1246.56 634.076L1238.35 639.779C1241.92 644.924 1246.94 649.16 1253.11 651.799L1257.04 642.605ZM1289.2 629.713C1283.88 642.154 1269.48 647.926 1257.04 642.605L1253.11 651.799C1270.63 659.292 1290.9 651.165 1298.4 633.646L1289.2 629.713ZM1290.43 614.084C1291.71 619.111 1291.4 624.572 1289.2 629.713L1298.4 633.646C1301.49 626.418 1301.92 618.707 1300.13 611.628L1290.43 614.084ZM1302.57 598.453C1300.64 602.97 1297.21 606.375 1293.11 608.351L1297.45 617.361C1303.65 614.376 1308.85 609.211 1311.77 602.385L1302.57 598.453ZM1294.03 573.689C1302.73 578.449 1306.55 589.143 1302.57 598.453L1311.77 602.385C1317.79 588.294 1312 572.123 1298.83 564.915L1294.03 573.689ZM1292.96 564.977C1292.67 565.652 1292.36 566.307 1292.02 566.941L1300.83 571.663C1301.31 570.772 1301.75 569.854 1302.16 568.909L1292.96 564.977ZM1280.07 532.816C1292.51 538.137 1298.28 552.536 1292.96 564.977L1302.16 568.909C1309.65 551.391 1301.52 531.115 1284 523.622L1280.07 532.816ZM1247.91 545.707C1253.23 533.267 1267.63 527.495 1280.07 532.816L1284 523.622C1266.48 516.129 1246.21 524.256 1238.72 541.775L1247.91 545.707Z" fill="#D1E0DA" mask="url(#path-20-outside-7)"/>
<mask id="path-22-outside-8" maskUnits="userSpaceOnUse" x="1099" y="513" width="123" height="122" fill="black">
<rect fill="white" x="1099" y="513" width="123" height="122"/>
<path fill-rule="evenodd" clip-rule="evenodd" d="M1190.89 547.444C1190.96 546.639 1191 545.824 1191 545C1191 530.088 1178.91 518 1164 518C1149.09 518 1137 530.088 1137 545C1137 545.435 1137.01 545.867 1137.03 546.297C1134 544.825 1130.6 544 1127 544C1114.3 544 1104 554.297 1104 567C1104 579.703 1114.3 590 1127 590C1128.39 590 1129.76 589.876 1131.08 589.639C1132.44 612.158 1151.14 630 1174 630C1197.75 630 1217 610.748 1217 587C1217 569.248 1206.24 554.008 1190.89 547.444Z"/>
</mask>
<path fill-rule="evenodd" clip-rule="evenodd" d="M1190.89 547.444C1190.96 546.639 1191 545.824 1191 545C1191 530.088 1178.91 518 1164 518C1149.09 518 1137 530.088 1137 545C1137 545.435 1137.01 545.867 1137.03 546.297C1134 544.825 1130.6 544 1127 544C1114.3 544 1104 554.297 1104 567C1104 579.703 1114.3 590 1127 590C1128.39 590 1129.76 589.876 1131.08 589.639C1132.44 612.158 1151.14 630 1174 630C1197.75 630 1217 610.748 1217 587C1217 569.248 1206.24 554.008 1190.89 547.444Z" fill="#DFEBE6"/>
<path d="M1190.89 547.444L1185.91 546.997L1185.59 550.614L1188.93 552.042L1190.89 547.444ZM1137.03 546.297L1134.85 550.795L1142.42 554.472L1142.03 546.06L1137.03 546.297ZM1131.08 589.639L1136.07 589.337L1135.73 583.727L1130.2 584.718L1131.08 589.639ZM1195.87 547.891C1195.96 546.938 1196 545.973 1196 545H1186C1186 545.675 1185.97 546.341 1185.91 546.997L1195.87 547.891ZM1196 545C1196 527.327 1181.67 513 1164 513V523C1176.15 523 1186 532.85 1186 545H1196ZM1164 513C1146.33 513 1132 527.327 1132 545H1142C1142 532.85 1151.85 523 1164 523V513ZM1132 545C1132 545.513 1132.01 546.024 1132.04 546.533L1142.03 546.06C1142.01 545.709 1142 545.356 1142 545H1132ZM1139.21 541.799C1135.52 540.004 1131.37 539 1127 539V549C1129.82 549 1132.48 549.646 1134.85 550.795L1139.21 541.799ZM1127 539C1111.54 539 1099 551.536 1099 567H1109C1109 557.059 1117.06 549 1127 549V539ZM1099 567C1099 582.464 1111.54 595 1127 595V585C1117.06 585 1109 576.941 1109 567H1099ZM1127 595C1128.69 595 1130.35 594.85 1131.96 594.561L1130.2 584.718C1129.16 584.903 1128.1 585 1127 585V595ZM1174 625C1153.8 625 1137.28 609.233 1136.07 589.337L1126.09 589.941C1127.61 615.084 1148.48 635 1174 635V625ZM1212 587C1212 607.987 1194.99 625 1174 625V635C1200.51 635 1222 613.51 1222 587H1212ZM1188.93 552.042C1202.5 557.847 1212 571.32 1212 587H1222C1222 567.176 1209.98 550.17 1192.86 542.847L1188.93 552.042Z" fill="#D1E0DA" mask="url(#path-22-outside-8)"/>
<mask id="path-24-outside-9" maskUnits="userSpaceOnUse" x="1093" y="589" width="134" height="105" fill="black">
<rect fill="white" x="1093" y="589" width="134" height="105"/>
<path fill-rule="evenodd" clip-rule="evenodd" d="M1189.5 659C1207.45 659 1222 644.449 1222 626.5C1222 608.551 1207.45 594 1189.5 594C1172.01 594 1157.75 607.816 1157.03 625.13C1154.31 624.393 1151.45 624 1148.5 624C1144.73 624 1141.11 624.641 1137.75 625.82C1136.23 616.286 1127.96 609 1118 609C1106.95 609 1098 617.954 1098 629C1098 639.669 1106.35 648.387 1116.88 648.969C1116.3 651.386 1116 653.908 1116 656.5C1116 674.449 1130.55 689 1148.5 689C1165.99 689 1180.25 675.184 1180.97 657.87C1183.69 658.607 1186.55 659 1189.5 659Z"/>
</mask>
<path fill-rule="evenodd" clip-rule="evenodd" d="M1189.5 659C1207.45 659 1222 644.449 1222 626.5C1222 608.551 1207.45 594 1189.5 594C1172.01 594 1157.75 607.816 1157.03 625.13C1154.31 624.393 1151.45 624 1148.5 624C1144.73 624 1141.11 624.641 1137.75 625.82C1136.23 616.286 1127.96 609 1118 609C1106.95 609 1098 617.954 1098 629C1098 639.669 1106.35 648.387 1116.88 648.969C1116.3 651.386 1116 653.908 1116 656.5C1116 674.449 1130.55 689 1148.5 689C1165.99 689 1180.25 675.184 1180.97 657.87C1183.69 658.607 1186.55 659 1189.5 659Z" fill="#DFEBE6"/>
<path d="M1157.03 625.13L1155.72 629.956L1161.76 631.596L1162.02 625.338L1157.03 625.13ZM1137.75 625.82L1132.81 626.609L1133.76 632.518L1139.4 630.539L1137.75 625.82ZM1116.88 648.969L1121.74 650.123L1123.12 644.307L1117.15 643.977L1116.88 648.969ZM1180.97 657.87L1182.28 653.044L1176.24 651.404L1175.98 657.662L1180.97 657.87ZM1217 626.5C1217 641.688 1204.69 654 1189.5 654V664C1210.21 664 1227 647.211 1227 626.5H1217ZM1189.5 599C1204.69 599 1217 611.312 1217 626.5H1227C1227 605.789 1210.21 589 1189.5 589V599ZM1162.02 625.338C1162.63 610.691 1174.7 599 1189.5 599V589C1169.32 589 1152.86 604.942 1152.03 624.923L1162.02 625.338ZM1148.5 629C1151.01 629 1153.42 629.334 1155.72 629.956L1158.34 620.305C1155.2 619.453 1151.9 619 1148.5 619V629ZM1139.4 630.539C1142.24 629.544 1145.3 629 1148.5 629V619C1144.16 619 1139.98 619.739 1136.1 621.102L1139.4 630.539ZM1118 614C1125.47 614 1131.67 619.462 1132.81 626.609L1142.69 625.032C1140.78 613.109 1130.46 604 1118 604V614ZM1103 629C1103 620.716 1109.72 614 1118 614V604C1104.19 604 1093 615.193 1093 629H1103ZM1117.15 643.977C1109.27 643.54 1103 637 1103 629H1093C1093 642.338 1103.44 653.233 1116.6 653.961L1117.15 643.977ZM1121 656.5C1121 654.299 1121.26 652.165 1121.74 650.123L1112.01 647.815C1111.35 650.607 1111 653.516 1111 656.5H1121ZM1148.5 684C1133.31 684 1121 671.688 1121 656.5H1111C1111 677.211 1127.79 694 1148.5 694V684ZM1175.98 657.662C1175.37 672.309 1163.3 684 1148.5 684V694C1168.68 694 1185.14 678.058 1185.97 658.077L1175.98 657.662ZM1189.5 654C1186.99 654 1184.58 653.666 1182.28 653.044L1179.66 662.695C1182.8 663.547 1186.1 664 1189.5 664V654Z" fill="#D1E0DA" mask="url(#path-24-outside-9)"/>
<mask id="path-26-outside-10" maskUnits="userSpaceOnUse" x="1198.34" y="655.341" width="86.9741" height="86.9741" fill="black">
<rect fill="white" x="1198.34" y="655.341" width="86.9741" height="86.9741"/>
<path fill-rule="evenodd" clip-rule="evenodd" d="M1253.73 678.91C1244.94 670.123 1230.7 670.123 1221.91 678.91C1213.12 687.697 1213.12 701.943 1221.91 710.73C1226.78 715.598 1233.32 717.769 1239.69 717.243C1240.03 719.473 1241.06 721.617 1242.78 723.335C1247.07 727.63 1254.04 727.63 1258.33 723.335C1262.63 719.039 1262.63 712.074 1258.33 707.778C1257.91 707.351 1257.45 706.967 1256.98 706.625C1262.33 697.951 1261.25 686.431 1253.73 678.91Z"/>
</mask>
<path fill-rule="evenodd" clip-rule="evenodd" d="M1253.73 678.91C1244.94 670.123 1230.7 670.123 1221.91 678.91C1213.12 687.697 1213.12 701.943 1221.91 710.73C1226.78 715.598 1233.32 717.769 1239.69 717.243C1240.03 719.473 1241.06 721.617 1242.78 723.335C1247.07 727.63 1254.04 727.63 1258.33 723.335C1262.63 719.039 1262.63 712.074 1258.33 707.778C1257.91 707.351 1257.45 706.967 1256.98 706.625C1262.33 697.951 1261.25 686.431 1253.73 678.91Z" fill="#DFEBE6"/>
<path d="M1239.69 717.243L1244.63 716.48L1243.92 711.876L1239.27 712.26L1239.69 717.243ZM1256.98 706.625L1252.73 703.998L1250.28 707.959L1254.06 710.68L1256.98 706.625ZM1225.45 682.445C1232.28 675.611 1243.36 675.611 1250.19 682.445L1257.27 675.374C1246.53 664.635 1229.11 664.635 1218.37 675.374L1225.45 682.445ZM1225.45 707.194C1218.61 700.36 1218.61 689.279 1225.45 682.445L1218.37 675.374C1207.63 686.114 1207.63 703.526 1218.37 714.265L1225.45 707.194ZM1239.27 712.26C1234.31 712.67 1229.23 710.98 1225.45 707.194L1218.37 714.265C1224.33 720.216 1232.33 722.868 1240.1 722.226L1239.27 712.26ZM1246.31 719.799C1245.37 718.858 1244.81 717.695 1244.63 716.48L1234.74 718.005C1235.24 721.25 1236.75 724.376 1239.24 726.87L1246.31 719.799ZM1254.8 719.799C1252.46 722.142 1248.66 722.142 1246.31 719.799L1239.24 726.87C1245.49 733.118 1255.62 733.118 1261.87 726.87L1254.8 719.799ZM1254.8 711.314C1257.14 713.657 1257.14 717.456 1254.8 719.799L1261.87 726.87C1268.12 720.622 1268.12 710.491 1261.87 704.243L1254.8 711.314ZM1254.06 710.68C1254.31 710.866 1254.56 711.077 1254.8 711.314L1261.87 704.243C1261.25 703.626 1260.6 703.067 1259.9 702.569L1254.06 710.68ZM1250.19 682.445C1256.04 688.29 1256.89 697.253 1252.73 703.998L1261.23 709.251C1267.78 698.65 1266.46 684.571 1257.27 675.374L1250.19 682.445Z" fill="#D1E0DA" mask="url(#path-26-outside-10)"/>
</g>
<path d="M1780 601.982C1786.43 603.911 1791.25 622.429 1792.86 631.446C1791.96 618.679 1789.16 592.714 1785.09 591" stroke="#D1E0DA" stroke-width="4" stroke-linecap="round"/>
<path d="M1810 609.47C1801.43 610.926 1795 624.906 1792.86 631.714C1794.05 622.075 1797.79 602.473 1803.21 601.178" stroke="#D1E0DA" stroke-width="4" stroke-linecap="round"/>
<path d="M1747 704.982C1753.43 706.911 1758.25 725.429 1759.86 734.446C1758.96 721.679 1756.16 695.714 1752.09 694" stroke="#D1E0DA" stroke-width="4" stroke-linecap="round"/>
<path d="M1777 712.47C1768.43 713.926 1762 727.906 1759.86 734.714C1761.05 725.075 1764.79 705.473 1770.21 704.178" stroke="#D1E0DA" stroke-width="4" stroke-linecap="round"/>
<mask id="path-32-outside-11" maskUnits="userSpaceOnUse" x="1283" y="740" width="50" height="25" fill="black">
<rect fill="white" x="1283" y="740" width="50" height="25"/>
<path fill-rule="evenodd" clip-rule="evenodd" d="M1327.6 761H1287.8C1287.29 760.117 1287 759.093 1287 758C1287 754.686 1289.69 752 1293 752C1293.78 752 1294.52 752.148 1295.21 752.419C1296.17 747.617 1300.41 744 1305.5 744C1307.67 744 1309.68 744.656 1311.35 745.78C1313.13 744.653 1315.24 744 1317.5 744C1323.85 744 1329 749.149 1329 755.5C1329 757.492 1328.49 759.366 1327.6 761Z"/>
</mask>
<path fill-rule="evenodd" clip-rule="evenodd" d="M1327.6 761H1287.8C1287.29 760.117 1287 759.093 1287 758C1287 754.686 1289.69 752 1293 752C1293.78 752 1294.52 752.148 1295.21 752.419C1296.17 747.617 1300.41 744 1305.5 744C1307.67 744 1309.68 744.656 1311.35 745.78C1313.13 744.653 1315.24 744 1317.5 744C1323.85 744 1329 749.149 1329 755.5C1329 757.492 1328.49 759.366 1327.6 761Z" fill="#DFEBE6"/>
<path d="M1327.6 761V765H1329.98L1331.11 762.916L1327.6 761ZM1287.8 761L1284.34 763.003L1285.5 765H1287.8V761ZM1295.21 752.419L1293.73 756.138L1298.18 757.898L1299.13 753.207L1295.21 752.419ZM1311.35 745.78L1309.12 749.1L1311.29 750.557L1313.49 749.158L1311.35 745.78ZM1327.6 757H1287.8V765H1327.6V757ZM1283 758C1283 759.815 1283.49 761.528 1284.34 763.003L1291.27 758.997C1291.1 758.707 1291 758.371 1291 758H1283ZM1293 748C1287.48 748 1283 752.477 1283 758H1291C1291 756.895 1291.9 756 1293 756V748ZM1296.68 748.699C1295.53 748.247 1294.29 748 1293 748V756C1293.27 756 1293.51 756.05 1293.73 756.138L1296.68 748.699ZM1305.5 740C1298.47 740 1292.62 744.997 1291.28 751.63L1299.13 753.207C1299.73 750.236 1302.36 748 1305.5 748V740ZM1313.58 742.461C1311.27 740.907 1308.49 740 1305.5 740V748C1306.85 748 1308.09 748.405 1309.12 749.1L1313.58 742.461ZM1317.5 740C1314.46 740 1311.61 740.88 1309.21 742.402L1313.49 749.158C1314.65 748.425 1316.02 748 1317.5 748V740ZM1333 755.5C1333 746.94 1326.06 740 1317.5 740V748C1321.64 748 1325 751.358 1325 755.5H1333ZM1331.11 762.916C1332.32 760.709 1333 758.178 1333 755.5H1325C1325 756.806 1324.67 758.023 1324.09 759.084L1331.11 762.916Z" fill="#D1E0DA" mask="url(#path-32-outside-11)"/>
<mask id="path-34-outside-12" maskUnits="userSpaceOnUse" x="1225" y="744.5" width="50" height="31" fill="black">
<rect fill="white" x="1225" y="744.5" width="50" height="31"/>
<path fill-rule="evenodd" clip-rule="evenodd" d="M1270.49 770.882H1229.63C1229.23 770.177 1229 769.358 1229 768.484C1229 766.028 1230.83 764.002 1233.18 763.721C1233.03 762.934 1232.95 762.121 1232.95 761.29C1232.95 754.226 1238.62 748.5 1245.61 748.5C1252.05 748.5 1257.37 753.369 1258.16 759.666C1259.28 759.168 1260.52 758.892 1261.82 758.892C1266.85 758.892 1270.92 763.007 1270.92 768.084C1270.92 769.06 1270.77 770 1270.49 770.882Z"/>
</mask>
<path fill-rule="evenodd" clip-rule="evenodd" d="M1270.49 770.882H1229.63C1229.23 770.177 1229 769.358 1229 768.484C1229 766.028 1230.83 764.002 1233.18 763.721C1233.03 762.934 1232.95 762.121 1232.95 761.29C1232.95 754.226 1238.62 748.5 1245.61 748.5C1252.05 748.5 1257.37 753.369 1258.16 759.666C1259.28 759.168 1260.52 758.892 1261.82 758.892C1266.85 758.892 1270.92 763.007 1270.92 768.084C1270.92 769.06 1270.77 770 1270.49 770.882Z" fill="#DFEBE6"/>
<path d="M1270.49 770.882V774.882H1273.42L1274.3 772.087L1270.49 770.882ZM1229.63 770.882L1226.16 772.869L1227.32 774.882H1229.63V770.882ZM1233.18 763.721L1233.66 767.693L1237.91 767.185L1237.11 762.973L1233.18 763.721ZM1258.16 759.666L1254.19 760.164L1254.86 765.511L1259.79 763.321L1258.16 759.666ZM1270.49 766.882H1229.63V774.882H1270.49V766.882ZM1225 768.484C1225 770.071 1225.42 771.573 1226.16 772.869L1233.11 768.895C1233.04 768.78 1233 768.644 1233 768.484H1225ZM1232.71 759.749C1228.33 760.272 1225 764.011 1225 768.484H1233C1233 768.044 1233.32 767.733 1233.66 767.693L1232.71 759.749ZM1228.95 761.29C1228.95 762.373 1229.06 763.437 1229.25 764.469L1237.11 762.973C1237.01 762.431 1236.95 761.869 1236.95 761.29H1228.95ZM1245.61 744.5C1236.37 744.5 1228.95 752.057 1228.95 761.29H1236.95C1236.95 756.395 1240.87 752.5 1245.61 752.5V744.5ZM1262.13 759.169C1261.1 750.929 1254.13 744.5 1245.61 744.5V752.5C1249.98 752.5 1253.65 755.81 1254.19 760.164L1262.13 759.169ZM1261.82 754.892C1259.95 754.892 1258.16 755.291 1256.54 756.012L1259.79 763.321C1260.41 763.046 1261.09 762.892 1261.82 762.892V754.892ZM1274.92 768.084C1274.92 760.839 1269.09 754.892 1261.82 754.892V762.892C1264.6 762.892 1266.92 765.176 1266.92 768.084H1274.92ZM1274.3 772.087C1274.7 770.819 1274.92 769.473 1274.92 768.084H1266.92C1266.92 768.647 1266.83 769.181 1266.67 769.678L1274.3 772.087Z" fill="#D1E0DA" mask="url(#path-34-outside-12)"/>
<mask id="path-36-outside-13" maskUnits="userSpaceOnUse" x="1720" y="715" width="50" height="25" fill="black">
<rect fill="white" x="1720" y="715" width="50" height="25"/>
<path fill-rule="evenodd" clip-rule="evenodd" d="M1764.6 736H1724.8C1724.29 735.117 1724 734.093 1724 733C1724 729.686 1726.69 727 1730 727C1730.78 727 1731.52 727.148 1732.21 727.419C1733.17 722.617 1737.41 719 1742.5 719C1744.67 719 1746.68 719.656 1748.35 720.78C1750.13 719.653 1752.24 719 1754.5 719C1760.85 719 1766 724.149 1766 730.5C1766 732.492 1765.49 734.366 1764.6 736Z"/>
</mask>
<path fill-rule="evenodd" clip-rule="evenodd" d="M1764.6 736H1724.8C1724.29 735.117 1724 734.093 1724 733C1724 729.686 1726.69 727 1730 727C1730.78 727 1731.52 727.148 1732.21 727.419C1733.17 722.617 1737.41 719 1742.5 719C1744.67 719 1746.68 719.656 1748.35 720.78C1750.13 719.653 1752.24 719 1754.5 719C1760.85 719 1766 724.149 1766 730.5C1766 732.492 1765.49 734.366 1764.6 736Z" fill="#DFEBE6"/>
<path d="M1764.6 736V740H1766.98L1768.11 737.916L1764.6 736ZM1724.8 736L1721.34 738.003L1722.5 740H1724.8V736ZM1732.21 727.419L1730.73 731.138L1735.18 732.898L1736.13 728.207L1732.21 727.419ZM1748.35 720.78L1746.12 724.1L1748.29 725.557L1750.49 724.158L1748.35 720.78ZM1764.6 732H1724.8V740H1764.6V732ZM1720 733C1720 734.815 1720.49 736.528 1721.34 738.003L1728.27 733.997C1728.1 733.707 1728 733.371 1728 733H1720ZM1730 723C1724.48 723 1720 727.477 1720 733H1728C1728 731.895 1728.9 731 1730 731V723ZM1733.68 723.699C1732.53 723.247 1731.29 723 1730 723V731C1730.27 731 1730.51 731.05 1730.73 731.138L1733.68 723.699ZM1742.5 715C1735.47 715 1729.62 719.997 1728.28 726.63L1736.13 728.207C1736.73 725.236 1739.36 723 1742.5 723V715ZM1750.58 717.461C1748.27 715.907 1745.49 715 1742.5 715V723C1743.85 723 1745.09 723.405 1746.12 724.1L1750.58 717.461ZM1754.5 715C1751.46 715 1748.61 715.88 1746.21 717.402L1750.49 724.158C1751.65 723.425 1753.02 723 1754.5 723V715ZM1770 730.5C1770 721.94 1763.06 715 1754.5 715V723C1758.64 723 1762 726.358 1762 730.5H1770ZM1768.11 737.916C1769.32 735.709 1770 733.178 1770 730.5H1762C1762 731.806 1761.67 733.023 1761.09 734.084L1768.11 737.916Z" fill="#D1E0DA" mask="url(#path-36-outside-13)"/>
<mask id="path-38-outside-14" maskUnits="userSpaceOnUse" x="373.12" y="838.735" width="41" height="26" fill="black">
<rect fill="white" x="373.12" y="838.735" width="41" height="26"/>
<path fill-rule="evenodd" clip-rule="evenodd" d="M409.481 859.851H377.615C377.3 859.312 377.12 858.685 377.12 858.017C377.12 856.139 378.545 854.59 380.383 854.375C380.266 853.773 380.204 853.152 380.204 852.516C380.204 847.114 384.624 842.735 390.075 842.735C395.102 842.735 399.251 846.459 399.866 851.274C400.74 850.893 401.706 850.682 402.721 850.682C406.639 850.682 409.816 853.829 409.816 857.712C409.816 858.458 409.698 859.176 409.481 859.851Z"/>
</mask>
<path fill-rule="evenodd" clip-rule="evenodd" d="M409.481 859.851H377.615C377.3 859.312 377.12 858.685 377.12 858.017C377.12 856.139 378.545 854.59 380.383 854.375C380.266 853.773 380.204 853.152 380.204 852.516C380.204 847.114 384.624 842.735 390.075 842.735C395.102 842.735 399.251 846.459 399.866 851.274C400.74 850.893 401.706 850.682 402.721 850.682C406.639 850.682 409.816 853.829 409.816 857.712C409.816 858.458 409.698 859.176 409.481 859.851Z" fill="#E6F0EC"/>
<path d="M409.481 859.851V863.851H412.395L413.288 861.077L409.481 859.851ZM377.615 859.851L374.161 861.868L375.319 863.851H377.615V859.851ZM380.383 854.375L380.848 858.348L385.132 857.847L384.309 853.612L380.383 854.375ZM399.866 851.274L395.899 851.782L396.575 857.073L401.465 854.941L399.866 851.274ZM409.481 855.851H377.615V863.851H409.481V855.851ZM373.12 858.017C373.12 859.414 373.499 860.734 374.161 861.868L381.07 857.834C381.101 857.889 381.12 857.956 381.12 858.017H373.12ZM379.918 850.402C376.117 850.847 373.12 854.057 373.12 858.017H381.12C381.12 858.111 381.08 858.199 381.031 858.253C380.986 858.303 380.921 858.339 380.848 858.348L379.918 850.402ZM376.204 852.516C376.204 853.409 376.291 854.286 376.456 855.138L384.309 853.612C384.241 853.26 384.204 852.894 384.204 852.516H376.204ZM390.075 838.735C382.449 838.735 376.204 844.871 376.204 852.516H384.204C384.204 849.358 386.798 846.735 390.075 846.735V838.735ZM403.834 850.767C402.963 843.952 397.112 838.735 390.075 838.735V846.735C393.091 846.735 395.539 848.966 395.899 851.782L403.834 850.767ZM402.721 846.682C401.146 846.682 399.637 847.011 398.268 847.608L401.465 854.941C401.843 854.776 402.265 854.682 402.721 854.682V846.682ZM413.816 857.712C413.816 851.586 408.814 846.682 402.721 846.682V854.682C404.465 854.682 405.816 856.073 405.816 857.712H413.816ZM413.288 861.077C413.632 860.012 413.816 858.879 413.816 857.712H405.816C405.816 858.036 405.765 858.341 405.674 858.625L413.288 861.077Z" fill="#DFEBE6" mask="url(#path-38-outside-14)"/>
<path d="M344 808.304C354.714 811.518 362.75 842.381 365.429 857.411C363.941 836.131 359.268 792.857 352.482 790" stroke="#DFEBE6" stroke-width="4" stroke-linecap="round"/>
<path d="M394 820.783C379.714 823.21 369 846.51 365.428 857.857C367.413 841.792 373.643 809.121 382.69 806.964" stroke="#DFEBE6" stroke-width="4" stroke-linecap="round"/>
<defs>
<clipPath id="clip0">
<rect width="151" height="162" fill="white" transform="translate(78 425)"/>
</clipPath>
<clipPath id="clip1">
<rect width="221" height="235" fill="white" transform="translate(1091 513)"/>
</clipPath>
</defs>
</svg>
