<svg width="42" height="27" viewBox="0 0 42 27" fill="none" xmlns="http://www.w3.org/2000/svg">
<path d="M4.34967 23.984C4.34967 22.959 5.00691 22.0534 5.99073 21.7657C9.22143 20.821 16.544 18.8664 21.7483 18.8906C26.7422 18.9138 33.7502 20.8223 36.8909 21.7582C37.871 22.0503 38.5256 22.9556 38.5256 23.9784C38.5256 25.2864 37.4649 26.3468 36.1568 26.3468C25.6285 26.3468 16.7629 26.3468 6.71306 26.3468C5.40813 26.3468 4.34967 25.2889 4.34967 23.984Z" fill="#34314C"/>
<path d="M0 3.35642C0 1.64052 1.39101 0.249512 3.1069 0.249512C4.8228 0.249512 6.21381 1.64052 6.21381 3.35642V6.46332C6.21381 8.17922 4.8228 9.57022 3.1069 9.57022C1.39101 9.57022 0 8.17922 0 6.46332V3.35642Z" fill="#34314C"/>
<path d="M35.4187 3.35642C35.4187 1.64052 36.8097 0.249512 38.5256 0.249512C40.2415 0.249512 41.6325 1.64052 41.6325 3.35642V6.46332C41.6325 8.17922 40.2415 9.57022 38.5256 9.57022C36.8097 9.57022 35.4187 8.17922 35.4187 6.46332V3.35642Z" fill="#34314C"/>
</svg>
