<svg width="42" height="28" viewBox="0 0 42 28" fill="none" xmlns="http://www.w3.org/2000/svg">
<path d="M4.34966 25.2256C4.34966 24.3278 4.91484 23.5299 5.77005 23.2565C8.87649 22.2635 16.4218 20.0447 21.7483 20.0716C26.8677 20.0973 34.1038 22.2695 37.1203 23.2526C37.9681 23.529 38.5256 24.322 38.5256 25.2138C38.5256 26.656 37.1099 27.6871 35.7252 27.2839C32.2346 26.2676 26.188 24.7157 21.7483 24.6952C17.0996 24.6736 10.7464 26.2725 7.14388 27.302C5.7594 27.6977 4.34966 26.6655 4.34966 25.2256Z" fill="#34314C"/>
<path d="M0 3.29404C0 1.57815 1.39101 0.187138 3.1069 0.187138C4.8228 0.187138 6.21381 1.57815 6.21381 3.29404V6.40095C6.21381 8.11684 4.8228 9.50785 3.1069 9.50785C1.39101 9.50785 0 8.11684 0 6.40095V3.29404Z" fill="#34314C"/>
<path d="M35.4187 3.29404C35.4187 1.57814 36.8097 0.187134 38.5256 0.187134C40.2415 0.187134 41.6325 1.57814 41.6325 3.29404V6.40094C41.6325 8.11684 40.2415 9.50785 38.5256 9.50785C36.8097 9.50785 35.4187 8.11684 35.4187 6.40094V3.29404Z" fill="#34314C"/>
</svg>
