<svg width="42" height="27" viewBox="0 0 42 27" fill="none" xmlns="http://www.w3.org/2000/svg">
<path d="M4.23359 24.0479C4.23359 22.8468 5.2073 21.8731 6.40842 21.8731H36.2347C37.4358 21.8731 38.4095 22.8468 38.4095 24.0479C38.4095 25.249 37.4358 26.2228 36.2347 26.2228H6.40843C5.2073 26.2228 4.23359 25.249 4.23359 24.0479Z" fill="#34314C"/>
<path d="M0 3.23166C0 1.51577 1.39101 0.124756 3.1069 0.124756C4.8228 0.124756 6.21381 1.51576 6.21381 3.23166V6.33856C6.21381 8.05446 4.8228 9.44547 3.1069 9.44547C1.39101 9.44547 0 8.05446 0 6.33856V3.23166Z" fill="#34314C"/>
<path d="M35.4187 3.23166C35.4187 1.51577 36.8097 0.124756 38.5256 0.124756C40.2415 0.124756 41.6325 1.51576 41.6325 3.23166V6.33857C41.6325 8.05446 40.2415 9.44547 38.5256 9.44547C36.8097 9.44547 35.4187 8.05446 35.4187 6.33857V3.23166Z" fill="#34314C"/>
</svg>
