<svg width="42" height="29" viewBox="0 0 42 29" fill="none" xmlns="http://www.w3.org/2000/svg">
<path d="M4.23349 22.8701C4.23349 23.7679 4.79866 24.5657 5.65388 24.8391C8.76031 25.8322 16.3056 28.0509 21.6321 28.0241C26.7515 27.9983 33.9876 25.8261 37.0041 24.8431C37.8519 24.5667 38.4094 23.7737 38.4094 22.8819C38.4094 21.4397 36.9937 20.4086 35.609 20.8117C32.1184 21.8281 26.0719 23.38 21.6321 23.4005C16.9835 23.422 10.6302 21.8232 7.02771 20.7937C5.64323 20.398 4.23349 21.4301 4.23349 22.8701Z" fill="#34314C"/>
<path d="M0 3.16929C0 1.45339 1.39101 0.0623823 3.1069 0.0623823C4.8228 0.0623823 6.21381 1.45339 6.21381 3.16929V6.27619C6.21381 7.99209 4.8228 9.3831 3.1069 9.3831C1.39101 9.3831 0 7.99209 0 6.27619V3.16929Z" fill="#34314C"/>
<path d="M35.4186 3.16928C35.4186 1.45339 36.8096 0.0623779 38.5255 0.0623779C40.2414 0.0623779 41.6324 1.45339 41.6324 3.16928V6.27619C41.6324 7.99208 40.2414 9.38309 38.5255 9.38309C36.8096 9.38309 35.4186 7.99208 35.4186 6.27619V3.16928Z" fill="#34314C"/>
</svg>
