<svg width="42" height="28" viewBox="0 0 42 28" fill="none" xmlns="http://www.w3.org/2000/svg">
<path d="M4.23347 22.4878C4.23347 23.5851 4.92684 24.5612 5.97333 24.8914C9.25245 25.926 16.4802 28.0009 21.6321 27.9749C26.5733 27.9501 33.4865 25.9256 36.6741 24.9007C37.7199 24.5645 38.4094 23.5864 38.4094 22.4879C38.4094 21.0559 37.2518 19.8941 35.8199 19.8913C32.3663 19.8845 26.1626 19.877 21.6321 19.898C16.8935 19.9199 10.3837 19.9112 6.82171 19.9037C5.39233 19.9007 4.23347 21.0584 4.23347 22.4878Z" fill="#34314C"/>
<path d="M0 3.10691C0 1.39101 1.39101 1.56326e-06 3.1069 1.56326e-06C4.8228 1.56326e-06 6.21381 1.39101 6.21381 3.10691V6.21381C6.21381 7.92971 4.8228 9.32071 3.1069 9.32071C1.39101 9.32071 0 7.92971 0 6.21381V3.10691Z" fill="#34314C"/>
<path d="M35.4186 3.1069C35.4186 1.39101 36.8096 0 38.5255 0C40.2414 0 41.6324 1.39101 41.6324 3.1069V6.21381C41.6324 7.9297 40.2414 9.32071 38.5255 9.32071C36.8096 9.32071 35.4186 7.9297 35.4186 6.21381V3.1069Z" fill="#34314C"/>
</svg>
