<svg class="gsap-smile" xmlns="http://www.w3.org/2000/svg" viewBox="0 0 42 42">
  <!-- Eyes -->
  <path class="gsap-left-eye" d="m0 12.356c0-1.7159 1.391-3.1069 3.1069-3.1069 1.7159 0 3.1069 1.391 3.1069 3.1069v3.1069c0 1.7159-1.391 3.1069-3.1069 3.1069-1.7159 0-3.1069-1.391-3.1069-3.1069z"/>
  <path class="gsap-right-eye"d="M35.419 12.356c0-1.7159 1.391-3.1069 3.1069-3.1069s3.1069 1.391 3.1069 3.1069v3.1069c0 1.7159-1.391 3.1069-3.1069 3.1069s-3.1069-1.391-3.1069-3.1069z" />
  <!-- Smile Paths -->
  <path class="gsap-mood-one" d="M4.3497 32.984c0-1.025.65724-1.9306 1.6411-2.2183 3.2307-.9447 10.553-2.8993 15.758-2.8751 4.9939.0232 12.002 1.9317 15.143 2.8676.9801.2921 1.6347 1.1974 1.6347 2.2202 0 1.308-1.0607 2.3684-2.3688 2.3684h-29.444c-1.3049 0-2.3634-1.0579-2.3634-2.3628z"/>
  <path class="gsap-mood-two" d="m4.3497 34.288c0-0.8978 0.56518-1.6957 1.4204-1.9691 3.1064-0.993 10.652-3.2118 15.978-3.1849 5.1194 0.0257 12.356 2.1979 15.372 3.181 0.8478 0.2764 1.4053 1.0694 1.4053 1.9612 0 1.4422-1.4157 2.4733-2.8004 2.0701-3.4906-1.0163-9.5372-2.5682-13.977-2.5887-4.6487-0.0216-11.002 1.5773-14.604 2.6068-1.3845 0.3957-2.7942-0.6365-2.7942-2.0764z"/>
  <path class="gsap-mood-three" d="m 4.2336,33.173 c 0,-1.2011 0.97371,-2.1748 2.1748,-2.1748 H 21.739039 36.2344 c 1.2011,0 2.1748,0.9737 2.1748,2.1748 0,1.2011 -0.9737,2.1749 -2.1748,2.1749 H 21.707579 6.4084 c -1.2011,0 -2.1748,-0.9738 -2.1748,-2.1749 z" />
  <path class="gsap-mood-four" d="m4.2336 32.057c0 0.8978 0.56517 1.6956 1.4204 1.969 3.1064 0.9931 10.652 3.2118 15.978 3.185 5.1194-0.0258 12.356-2.198 15.372-3.181 0.8478-0.2764 1.4053-1.0694 1.4053-1.9612 0-1.4422-1.4157-2.4733-2.8004-2.0702-3.4906 1.0164-9.5371 2.5683-13.977 2.5888-4.6486 0.0215-11.002-1.5773-14.604-2.6068-1.3845-0.3957-2.7942 0.6364-2.7942 2.0764z"/>
  <path class="gsap-mood-five" d="m4.2336 31.737c0 1.0973 0.69337 2.0734 1.7399 2.4036 3.2791 1.0346 10.507 3.1095 15.659 3.0835 4.9412-0.0248 11.854-2.0493 15.042-3.0742 1.0458-0.3362 1.7353-1.3143 1.7353-2.4128 0-1.432-1.1576-2.5938-2.5895-2.5966-3.4536-0.0068-9.6573-0.0143-14.188 0.0067-4.7386 0.0219-11.248 0.0132-14.81 0.0057-1.4294-3e-3 -2.5882 1.1547-2.5882 2.5841z"/>
  <!-- Smile Content -->
  <path class="gsap-mouth" d="m4.2336 33.173c0-1.2011 0.97371-2.1748 2.1748-2.1748h29.826c1.2011 0 2.1748 0.9737 2.1748 2.1748s-0.9737 2.1749-2.1748 2.1749h-29.826c-1.2011 0-2.1748-0.9738-2.1748-2.1749z"/>
</svg>
