<svg xmlns="http://www.w3.org/2000/svg" viewBox="0 0 534 544">
  <path d="M534 278c0-18-2-37-5-55H272v105h147c-6 34-26 64-54 83v68h87c52-48 82-118 82-201z" fill="#4285f4"/>
  <path d="M272 544c74 0 135-24 181-65l-88-68c-25 16-56 26-93 26-71 0-131-48-153-113H29v70c46 92 140 150 243 150z" fill="#34a853"/>
  <path d="M119 324c-11-33-11-70 0-104v-70H29c-39 77-39 168 0 244l90-70z" fill="#fbbc04"/>
  <path d="M272 108c39-1 76 14 105 41l77-78a272 272 0 00-425 79l90 70c22-64 82-112 153-112z" fill="#ea4335"/>
</svg>
