<svg xmlns="http://www.w3.org/2000/svg" viewBox="0 0 12 12">
  <path fill-rule="evenodd" d="M0.333374 6C0.333374 5.44772 0.781089 5 1.33337 5H10.6667C11.219 5 11.6667 5.44772 11.6667 6C11.6667 6.55228 11.219 7 10.6667 7H1.33337C0.781089 7 0.333374 6.55228 0.333374 6Z" clip-rule="evenodd"/>
  <path fill-rule="evenodd" d="M6.70715 0.626389C7.09767 1.01691 7.09767 1.65008 6.70715 2.0406L2.74759 6.00016L6.70715 9.95972C7.09767 10.3502 7.09767 10.9834 6.70715 11.3739C6.31662 11.7645 5.68346 11.7645 5.29293 11.3739L0.626267 6.70727C0.235743 6.31675 0.235743 5.68358 0.626267 5.29306L5.29293 0.626389C5.68346 0.235865 6.31662 0.235865 6.70715 0.626389Z" clip-rule="evenodd"/>
</svg>
