<svg width="108" height="42" viewBox="0 0 108 42" fill="none" xmlns="http://www.w3.org/2000/svg">
<path d="M108 20.2187C108 22.6137 107.456 24.7693 106.37 26.6853C105.283 28.5713 103.788 30.0383 101.886 31.0861C100.014 32.1339 97.946 32.6578 95.6816 32.6578C93.387 32.6578 91.3038 32.1339 89.4319 31.0861C87.56 30.0383 86.0805 28.5713 84.9936 26.6853C83.9067 24.7693 83.3633 22.6137 83.3633 20.2187C83.3633 17.8237 83.9067 15.6832 84.9936 13.7971C86.0805 11.8811 87.56 10.3992 89.4319 9.35137C91.3038 8.27362 93.387 7.73474 95.6816 7.73474C97.946 7.73474 100.014 8.27362 101.886 9.35137C103.788 10.3992 105.283 11.8811 106.37 13.7971C107.456 15.6832 108 17.8237 108 20.2187ZM102.565 20.2187C102.565 18.7518 102.248 17.4495 101.614 16.3119C101.01 15.1443 100.18 14.2462 99.1235 13.6175C98.0969 12.9888 96.9496 12.6745 95.6816 12.6745C94.4135 12.6745 93.2511 12.9888 92.1944 13.6175C91.1679 14.2462 90.3376 15.1443 89.7036 16.3119C89.0997 17.4495 88.7978 18.7518 88.7978 20.2187C88.7978 21.6857 89.0997 22.988 89.7036 24.1256C90.3376 25.2632 91.1679 26.1464 92.1944 26.7751C93.2511 27.4038 94.4135 27.7181 95.6816 27.7181C96.9496 27.7181 98.0969 27.4038 99.1235 26.7751C100.18 26.1464 101.01 25.2632 101.614 24.1256C102.248 22.988 102.565 21.6857 102.565 20.2187Z" fill="#3FE3D2"/>
<path d="M79.3502 29.6288C79.3502 30.4081 79.0933 31.0675 78.5795 31.607C78.0657 32.1166 77.4159 32.3714 76.63 32.3714C75.8442 32.3714 75.1944 32.1166 74.6806 31.607C74.1668 31.0675 73.9099 30.4081 73.9099 29.6288V10.4607C73.9099 9.68143 74.1668 9.037 74.6806 8.52745C75.1944 7.98793 75.8442 7.71817 76.63 7.71817C77.4159 7.71817 78.0657 7.98793 78.5795 8.52745C79.0933 9.037 79.3502 9.68143 79.3502 10.4607V29.6288Z" fill="#98DDAB"/>
<path d="M73.9126 2.69761C73.9126 1.20776 75.1305 0 76.6328 0C78.135 0 79.3529 1.20776 79.3529 2.69761V3.59682C79.3529 5.08667 78.135 6.29443 76.6328 6.29443C75.1305 6.29443 73.9126 5.08667 73.9126 3.59682V2.69761Z" fill="#98DDAB"/>
<path d="M64.4053 31.6088C64.9184 31.0705 65.1749 30.4126 65.1749 29.6351V2.73624C65.1749 1.95873 64.9184 1.31579 64.4053 0.807415C63.8922 0.269138 63.2433 0 62.4585 0C61.6738 0 61.0249 0.269138 60.5118 0.807415C59.9987 1.31579 59.7422 1.95873 59.7422 2.73624V29.6351C59.7422 30.4126 59.9987 31.0705 60.5118 31.6088C61.0249 32.1172 61.6738 32.3714 62.4585 32.3714C63.2433 32.3714 63.8922 32.1172 64.4053 31.6088Z" fill="#FFC952"/>
<path d="M53.8567 10.4665C53.8567 8.98008 55.0728 7.77511 56.5731 7.77511H68.0422C69.5424 7.77511 70.7585 8.98008 70.7585 10.4665C70.7585 11.9529 69.5424 13.1579 68.0422 13.1579H56.5731C55.0728 13.1579 53.8567 11.9529 53.8567 10.4665Z" fill="#FFC952"/>
<path d="M47.4376 7.73474C48.2162 7.73474 48.86 7.98921 49.369 8.49815C49.878 9.00709 50.1326 9.66572 50.1326 10.474V29.4695C50.1326 30.2478 49.878 30.9065 49.369 31.4453C48.86 31.9543 48.2162 32.2088 47.4376 32.2088C46.6591 32.2088 46.0153 31.9543 45.5063 31.4453C45.0272 30.9364 44.7727 30.2928 44.7427 29.5144C43.9941 30.3826 42.9761 31.131 41.6885 31.7597C40.4309 32.3584 39.0984 32.6578 37.691 32.6578C35.6249 32.6578 33.7534 32.1339 32.0766 31.0861C30.3998 30.0083 29.0673 28.5264 28.0791 26.6404C27.1209 24.7543 26.6418 22.6137 26.6418 20.2187C26.6418 17.8237 27.1209 15.6832 28.0791 13.7971C29.0373 11.8811 30.3399 10.3992 31.9868 9.35137C33.6636 8.27362 35.5051 7.73474 37.5114 7.73474C38.9486 7.73474 40.2961 8.00418 41.5537 8.54306C42.8114 9.052 43.8744 9.71062 44.7427 10.5189V10.474C44.7427 9.69566 44.9972 9.052 45.5063 8.54306C46.0153 8.00418 46.6591 7.73474 47.4376 7.73474ZM38.3647 27.7181C40.3111 27.7181 41.8981 27.0146 43.1258 25.6075C44.3535 24.1705 44.9673 22.3742 44.9673 20.2187C44.9673 18.0632 44.3535 16.267 43.1258 14.83C41.8981 13.393 40.3111 12.6745 38.3647 12.6745C36.4484 12.6745 34.8763 13.393 33.6486 14.83C32.421 16.267 31.8071 18.0632 31.8071 20.2187C31.8071 22.3742 32.406 24.1705 33.6037 25.6075C34.8314 27.0146 36.4184 27.7181 38.3647 27.7181Z" fill="#FF7473"/>
<path d="M12.4416 7.73474C14.5077 7.73474 16.3791 8.27462 18.056 9.35437C19.7328 10.4041 21.0503 11.8738 22.0085 13.7633C22.9967 15.6529 23.4907 17.7974 23.4907 20.1969C23.4907 22.5963 23.0116 24.7558 22.0534 26.6754C21.0952 28.5649 19.7777 30.0496 18.1009 31.1293C16.454 32.1791 14.6274 32.704 12.6212 32.704C11.1839 32.704 9.82149 32.419 8.53392 31.8492C7.27629 31.2493 6.22826 30.5295 5.38984 29.6897V38.5076C5.38984 39.2874 5.13532 39.9323 4.62628 40.4422C4.11724 40.9821 3.47345 41.252 2.69492 41.252C1.91639 41.252 1.2726 40.997 0.76356 40.4872C0.25452 39.9773 0 39.3174 0 38.5076V10.929C0 10.1492 0.25452 9.50433 0.76356 8.99445C1.2726 8.45457 1.91639 8.18464 2.69492 8.18464C3.47345 8.18464 4.11724 8.45457 4.62628 8.99445C5.13532 9.50433 5.38984 10.1492 5.38984 10.929V11.109C6.10849 10.2092 7.1116 9.42935 8.39917 8.7695C9.68674 8.07966 11.0342 7.73474 12.4416 7.73474ZM11.7678 27.7551C13.6842 27.7551 15.2562 27.0353 16.4839 25.5956C17.7116 24.1559 18.3255 22.3564 18.3255 20.1969C18.3255 18.0374 17.7116 16.2528 16.4839 14.8431C15.2862 13.4034 13.7142 12.6836 11.7678 12.6836C9.82149 12.6836 8.23448 13.4034 7.00679 14.8431C5.77911 16.2528 5.16526 18.0374 5.16526 20.1969C5.16526 22.3564 5.77911 24.1559 7.00679 25.5956C8.23448 27.0353 9.82149 27.7551 11.7678 27.7551Z" fill="#FE346E"/>
</svg>
