<svg width="130" height="130" viewBox="0 0 130 130" fill="none" xmlns="http://www.w3.org/2000/svg">
<path d="M52.1442 104.011C76.1177 104.011 95.5433 84.5277 95.5433 60.5053C95.5433 36.4828 76.1177 17 52.1442 17C28.1707 17 8.74512 36.4828 8.74512 60.5053C8.74512 84.5277 28.1707 104.011 52.1442 104.011Z" fill="#FFB138" stroke="#C78825" stroke-width="4"/>
<path opacity="0.2" fill-rule="evenodd" clip-rule="evenodd" d="M90.8025 75.0766C85.5343 81.2259 78.4187 85.8951 70.0115 88.1261C47.9085 93.9913 25.248 80.782 19.3977 58.6224C17.1725 50.1936 17.6999 41.684 20.4241 34.0517C11.8418 44.0693 8.16195 58.0149 11.787 71.7458C17.6372 93.9054 40.2977 107.115 62.4007 101.249C76.0965 97.6152 86.3646 87.51 90.8025 75.0766Z" fill="#C78825"/>
<path d="M35.9652 47.3858C36.1238 45.6365 37.2976 42.2334 40.7237 42.6151C44.1499 42.9967 44.5305 45.9546 44.2926 47.3858M72.6058 49.294C73.0023 47.3858 74.5568 43.8077 77.6022 44.7619C80.6477 45.716 80.7746 48.976 80.4573 50.4867M46.7908 57.7621C48.2184 59.5908 51.8111 62.986 57.1406 63.3677C62.4702 63.7493 67.3318 61.1811 69.6317 59.4318" stroke="#C78825" stroke-width="5" stroke-linecap="round"/>
<rect x="58.7483" y="79.8696" width="66" height="14" fill="#C78825"/>
<mask id="path-5-outside-1" maskUnits="userSpaceOnUse" x="54.3152" y="72.3062" width="74" height="25" fill="black">
<rect fill="white" x="54.3152" y="72.3062" width="74" height="25"/>
<path d="M63.6494 93.3375C62.0133 93.3375 60.7361 92.8282 59.8178 91.8098C58.9162 90.7747 58.4237 89.3222 58.3402 87.4522L58.3152 86.5757L58.3402 85.6742C58.407 83.871 58.8995 82.4435 59.8178 81.3917C60.7528 80.3399 62.03 79.814 63.6494 79.814C65.1688 79.814 66.3959 80.3065 67.3308 81.2915V75.9322C67.3308 75.7486 67.3893 75.5983 67.5061 75.4815C67.623 75.3646 67.7733 75.3062 67.9569 75.3062H71.0122C71.1959 75.3062 71.3461 75.3646 71.463 75.4815C71.5799 75.5983 71.6383 75.7486 71.6383 75.9322V92.4609C71.6383 92.6279 71.5799 92.7782 71.463 92.9117C71.3461 93.0286 71.1959 93.087 71.0122 93.087H68.1823C68.0154 93.087 67.8651 93.0286 67.7315 92.9117C67.6147 92.7782 67.5562 92.6279 67.5562 92.4609V91.6595C66.638 92.7782 65.3357 93.3375 63.6494 93.3375ZM65.0268 89.9816C65.7781 89.9816 66.3374 89.7479 66.7048 89.2804C67.0721 88.7962 67.2808 88.1785 67.3308 87.4272C67.3475 87.2102 67.3559 86.8929 67.3559 86.4755C67.3559 86.0748 67.3475 85.766 67.3308 85.5489C67.2974 84.8644 67.0888 84.2968 66.7048 83.846C66.3208 83.3952 65.7614 83.1698 65.0268 83.1698C64.2421 83.1698 63.6745 83.4035 63.3239 83.871C62.99 84.3385 62.798 84.9813 62.7479 85.7994C62.7312 85.9663 62.7228 86.2251 62.7228 86.5757C62.7228 86.9263 62.7312 87.1851 62.7479 87.3521C62.798 88.1702 62.99 88.8129 63.3239 89.2804C63.6745 89.7479 64.2421 89.9816 65.0268 89.9816Z"/>
<path d="M78.2212 93.087C77.9875 93.087 77.8038 93.0369 77.6703 92.9368C77.5534 92.8199 77.4616 92.6613 77.3948 92.4609L73.7885 80.8658L73.7384 80.6154C73.7384 80.4651 73.7969 80.3399 73.9138 80.2397C74.0306 80.1228 74.1642 80.0644 74.3144 80.0644H76.8939C77.0943 80.0644 77.2612 80.1228 77.3948 80.2397C77.5284 80.3399 77.6118 80.4568 77.6452 80.5903L79.7489 87.7528L82.0028 80.6154C82.0362 80.4818 82.1197 80.3566 82.2532 80.2397C82.3868 80.1228 82.5621 80.0644 82.7791 80.0644H84.432C84.6491 80.0644 84.8244 80.1228 84.9579 80.2397C85.0915 80.3566 85.175 80.4818 85.2084 80.6154L87.4623 87.7528L89.5659 80.5903C89.5993 80.4568 89.6828 80.3399 89.8164 80.2397C89.9499 80.1228 90.1169 80.0644 90.3172 80.0644H92.8967C93.047 80.0644 93.1805 80.1228 93.2974 80.2397C93.4143 80.3399 93.4727 80.4651 93.4727 80.6154L93.4226 80.8658L89.8164 92.4609C89.7496 92.6613 89.6494 92.8199 89.5158 92.9368C89.399 93.0369 89.2237 93.087 88.9899 93.087H86.736C86.3019 93.087 86.0264 92.8783 85.9096 92.4609L83.6056 85.599L81.3016 92.4609C81.1847 92.8783 80.9092 93.087 80.4751 93.087H78.2212Z"/>
<path d="M103.537 93.3375C101.868 93.3375 100.574 92.7782 99.6557 91.6595V92.4609C99.6557 92.6279 99.5973 92.7782 99.4804 92.9117C99.3635 93.0286 99.2133 93.087 99.0296 93.087H96.1997C96.0327 93.087 95.8825 93.0286 95.7489 92.9117C95.6321 92.7782 95.5736 92.6279 95.5736 92.4609V75.9322C95.5736 75.7486 95.6321 75.5983 95.7489 75.4815C95.8825 75.3646 96.0327 75.3062 96.1997 75.3062H99.255C99.4387 75.3062 99.5889 75.3646 99.7058 75.4815C99.8227 75.5983 99.8811 75.7486 99.8811 75.9322V81.2915C100.816 80.3065 102.035 79.814 103.537 79.814C105.157 79.814 106.434 80.3399 107.369 81.3917C108.304 82.4435 108.805 83.871 108.872 85.6742C108.888 85.8912 108.897 86.1917 108.897 86.5757C108.897 86.943 108.888 87.2352 108.872 87.4522C108.788 89.3222 108.287 90.7747 107.369 91.8098C106.451 92.8282 105.174 93.3375 103.537 93.3375ZM102.185 89.9816C102.97 89.9816 103.529 89.7479 103.863 89.2804C104.214 88.8129 104.414 88.1702 104.464 87.3521C104.497 87.0182 104.514 86.7594 104.514 86.5757C104.514 86.3921 104.497 86.1333 104.464 85.7994C104.414 84.9813 104.214 84.3385 103.863 83.871C103.529 83.4035 102.97 83.1698 102.185 83.1698C101.45 83.1698 100.891 83.3952 100.507 83.846C100.123 84.2968 99.9145 84.8644 99.8811 85.5489L99.8561 86.4755L99.8811 87.4272C99.9312 88.1785 100.132 88.7962 100.482 89.2804C100.849 89.7479 101.417 89.9816 102.185 89.9816Z"/>
<path d="M111.999 93.087C111.832 93.087 111.681 93.0286 111.548 92.9117C111.431 92.7782 111.373 92.6279 111.373 92.4609V75.9322C111.373 75.7486 111.431 75.5983 111.548 75.4815C111.681 75.3646 111.832 75.3062 111.999 75.3062H115.204C115.388 75.3062 115.538 75.3646 115.655 75.4815C115.772 75.5983 115.83 75.7486 115.83 75.9322V81.5169C116.832 80.3816 118.151 79.814 119.787 79.814C120.755 79.814 121.615 80.031 122.367 80.4651C123.135 80.8992 123.736 81.542 124.17 82.3935C124.604 83.2449 124.821 84.2717 124.821 85.4738V92.4609C124.821 92.6279 124.762 92.7782 124.646 92.9117C124.529 93.0286 124.378 93.087 124.195 93.087H120.964C120.797 93.087 120.647 93.0286 120.513 92.9117C120.397 92.7782 120.338 92.6279 120.338 92.4609V85.6241C120.338 84.8394 120.146 84.2383 119.762 83.8209C119.395 83.3868 118.852 83.1698 118.134 83.1698C117.416 83.1698 116.849 83.3868 116.431 83.8209C116.031 84.2383 115.83 84.8394 115.83 85.6241V92.4609C115.83 92.6446 115.772 92.7949 115.655 92.9117C115.538 93.0286 115.388 93.087 115.204 93.087H111.999Z"/>
</mask>
<path d="M63.6494 93.3375C62.0133 93.3375 60.7361 92.8282 59.8178 91.8098C58.9162 90.7747 58.4237 89.3222 58.3402 87.4522L58.3152 86.5757L58.3402 85.6742C58.407 83.871 58.8995 82.4435 59.8178 81.3917C60.7528 80.3399 62.03 79.814 63.6494 79.814C65.1688 79.814 66.3959 80.3065 67.3308 81.2915V75.9322C67.3308 75.7486 67.3893 75.5983 67.5061 75.4815C67.623 75.3646 67.7733 75.3062 67.9569 75.3062H71.0122C71.1959 75.3062 71.3461 75.3646 71.463 75.4815C71.5799 75.5983 71.6383 75.7486 71.6383 75.9322V92.4609C71.6383 92.6279 71.5799 92.7782 71.463 92.9117C71.3461 93.0286 71.1959 93.087 71.0122 93.087H68.1823C68.0154 93.087 67.8651 93.0286 67.7315 92.9117C67.6147 92.7782 67.5562 92.6279 67.5562 92.4609V91.6595C66.638 92.7782 65.3357 93.3375 63.6494 93.3375ZM65.0268 89.9816C65.7781 89.9816 66.3374 89.7479 66.7048 89.2804C67.0721 88.7962 67.2808 88.1785 67.3308 87.4272C67.3475 87.2102 67.3559 86.8929 67.3559 86.4755C67.3559 86.0748 67.3475 85.766 67.3308 85.5489C67.2974 84.8644 67.0888 84.2968 66.7048 83.846C66.3208 83.3952 65.7614 83.1698 65.0268 83.1698C64.2421 83.1698 63.6745 83.4035 63.3239 83.871C62.99 84.3385 62.798 84.9813 62.7479 85.7994C62.7312 85.9663 62.7228 86.2251 62.7228 86.5757C62.7228 86.9263 62.7312 87.1851 62.7479 87.3521C62.798 88.1702 62.99 88.8129 63.3239 89.2804C63.6745 89.7479 64.2421 89.9816 65.0268 89.9816Z" fill="#FFBD38"/>
<path d="M78.2212 93.087C77.9875 93.087 77.8038 93.0369 77.6703 92.9368C77.5534 92.8199 77.4616 92.6613 77.3948 92.4609L73.7885 80.8658L73.7384 80.6154C73.7384 80.4651 73.7969 80.3399 73.9138 80.2397C74.0306 80.1228 74.1642 80.0644 74.3144 80.0644H76.8939C77.0943 80.0644 77.2612 80.1228 77.3948 80.2397C77.5284 80.3399 77.6118 80.4568 77.6452 80.5903L79.7489 87.7528L82.0028 80.6154C82.0362 80.4818 82.1197 80.3566 82.2532 80.2397C82.3868 80.1228 82.5621 80.0644 82.7791 80.0644H84.432C84.6491 80.0644 84.8244 80.1228 84.9579 80.2397C85.0915 80.3566 85.175 80.4818 85.2084 80.6154L87.4623 87.7528L89.5659 80.5903C89.5993 80.4568 89.6828 80.3399 89.8164 80.2397C89.9499 80.1228 90.1169 80.0644 90.3172 80.0644H92.8967C93.047 80.0644 93.1805 80.1228 93.2974 80.2397C93.4143 80.3399 93.4727 80.4651 93.4727 80.6154L93.4226 80.8658L89.8164 92.4609C89.7496 92.6613 89.6494 92.8199 89.5158 92.9368C89.399 93.0369 89.2237 93.087 88.9899 93.087H86.736C86.3019 93.087 86.0264 92.8783 85.9096 92.4609L83.6056 85.599L81.3016 92.4609C81.1847 92.8783 80.9092 93.087 80.4751 93.087H78.2212Z" fill="#FFBD38"/>
<path d="M103.537 93.3375C101.868 93.3375 100.574 92.7782 99.6557 91.6595V92.4609C99.6557 92.6279 99.5973 92.7782 99.4804 92.9117C99.3635 93.0286 99.2133 93.087 99.0296 93.087H96.1997C96.0327 93.087 95.8825 93.0286 95.7489 92.9117C95.6321 92.7782 95.5736 92.6279 95.5736 92.4609V75.9322C95.5736 75.7486 95.6321 75.5983 95.7489 75.4815C95.8825 75.3646 96.0327 75.3062 96.1997 75.3062H99.255C99.4387 75.3062 99.5889 75.3646 99.7058 75.4815C99.8227 75.5983 99.8811 75.7486 99.8811 75.9322V81.2915C100.816 80.3065 102.035 79.814 103.537 79.814C105.157 79.814 106.434 80.3399 107.369 81.3917C108.304 82.4435 108.805 83.871 108.872 85.6742C108.888 85.8912 108.897 86.1917 108.897 86.5757C108.897 86.943 108.888 87.2352 108.872 87.4522C108.788 89.3222 108.287 90.7747 107.369 91.8098C106.451 92.8282 105.174 93.3375 103.537 93.3375ZM102.185 89.9816C102.97 89.9816 103.529 89.7479 103.863 89.2804C104.214 88.8129 104.414 88.1702 104.464 87.3521C104.497 87.0182 104.514 86.7594 104.514 86.5757C104.514 86.3921 104.497 86.1333 104.464 85.7994C104.414 84.9813 104.214 84.3385 103.863 83.871C103.529 83.4035 102.97 83.1698 102.185 83.1698C101.45 83.1698 100.891 83.3952 100.507 83.846C100.123 84.2968 99.9145 84.8644 99.8811 85.5489L99.8561 86.4755L99.8811 87.4272C99.9312 88.1785 100.132 88.7962 100.482 89.2804C100.849 89.7479 101.417 89.9816 102.185 89.9816Z" fill="#FFBD38"/>
<path d="M111.999 93.087C111.832 93.087 111.681 93.0286 111.548 92.9117C111.431 92.7782 111.373 92.6279 111.373 92.4609V75.9322C111.373 75.7486 111.431 75.5983 111.548 75.4815C111.681 75.3646 111.832 75.3062 111.999 75.3062H115.204C115.388 75.3062 115.538 75.3646 115.655 75.4815C115.772 75.5983 115.83 75.7486 115.83 75.9322V81.5169C116.832 80.3816 118.151 79.814 119.787 79.814C120.755 79.814 121.615 80.031 122.367 80.4651C123.135 80.8992 123.736 81.542 124.17 82.3935C124.604 83.2449 124.821 84.2717 124.821 85.4738V92.4609C124.821 92.6279 124.762 92.7782 124.646 92.9117C124.529 93.0286 124.378 93.087 124.195 93.087H120.964C120.797 93.087 120.647 93.0286 120.513 92.9117C120.397 92.7782 120.338 92.6279 120.338 92.4609V85.6241C120.338 84.8394 120.146 84.2383 119.762 83.8209C119.395 83.3868 118.852 83.1698 118.134 83.1698C117.416 83.1698 116.849 83.3868 116.431 83.8209C116.031 84.2383 115.83 84.8394 115.83 85.6241V92.4609C115.83 92.6446 115.772 92.7949 115.655 92.9117C115.538 93.0286 115.388 93.087 115.204 93.087H111.999Z" fill="#FFBD38"/>
<path d="M63.6494 93.3375C62.0133 93.3375 60.7361 92.8282 59.8178 91.8098C58.9162 90.7747 58.4237 89.3222 58.3402 87.4522L58.3152 86.5757L58.3402 85.6742C58.407 83.871 58.8995 82.4435 59.8178 81.3917C60.7528 80.3399 62.03 79.814 63.6494 79.814C65.1688 79.814 66.3959 80.3065 67.3308 81.2915V75.9322C67.3308 75.7486 67.3893 75.5983 67.5061 75.4815C67.623 75.3646 67.7733 75.3062 67.9569 75.3062H71.0122C71.1959 75.3062 71.3461 75.3646 71.463 75.4815C71.5799 75.5983 71.6383 75.7486 71.6383 75.9322V92.4609C71.6383 92.6279 71.5799 92.7782 71.463 92.9117C71.3461 93.0286 71.1959 93.087 71.0122 93.087H68.1823C68.0154 93.087 67.8651 93.0286 67.7315 92.9117C67.6147 92.7782 67.5562 92.6279 67.5562 92.4609V91.6595C66.638 92.7782 65.3357 93.3375 63.6494 93.3375ZM65.0268 89.9816C65.7781 89.9816 66.3374 89.7479 66.7048 89.2804C67.0721 88.7962 67.2808 88.1785 67.3308 87.4272C67.3475 87.2102 67.3559 86.8929 67.3559 86.4755C67.3559 86.0748 67.3475 85.766 67.3308 85.5489C67.2974 84.8644 67.0888 84.2968 66.7048 83.846C66.3208 83.3952 65.7614 83.1698 65.0268 83.1698C64.2421 83.1698 63.6745 83.4035 63.3239 83.871C62.99 84.3385 62.798 84.9813 62.7479 85.7994C62.7312 85.9663 62.7228 86.2251 62.7228 86.5757C62.7228 86.9263 62.7312 87.1851 62.7479 87.3521C62.798 88.1702 62.99 88.8129 63.3239 89.2804C63.6745 89.7479 64.2421 89.9816 65.0268 89.9816Z" stroke="#C78825" stroke-width="6" stroke-linejoin="round" mask="url(#path-5-outside-1)"/>
<path d="M78.2212 93.087C77.9875 93.087 77.8038 93.0369 77.6703 92.9368C77.5534 92.8199 77.4616 92.6613 77.3948 92.4609L73.7885 80.8658L73.7384 80.6154C73.7384 80.4651 73.7969 80.3399 73.9138 80.2397C74.0306 80.1228 74.1642 80.0644 74.3144 80.0644H76.8939C77.0943 80.0644 77.2612 80.1228 77.3948 80.2397C77.5284 80.3399 77.6118 80.4568 77.6452 80.5903L79.7489 87.7528L82.0028 80.6154C82.0362 80.4818 82.1197 80.3566 82.2532 80.2397C82.3868 80.1228 82.5621 80.0644 82.7791 80.0644H84.432C84.6491 80.0644 84.8244 80.1228 84.9579 80.2397C85.0915 80.3566 85.175 80.4818 85.2084 80.6154L87.4623 87.7528L89.5659 80.5903C89.5993 80.4568 89.6828 80.3399 89.8164 80.2397C89.9499 80.1228 90.1169 80.0644 90.3172 80.0644H92.8967C93.047 80.0644 93.1805 80.1228 93.2974 80.2397C93.4143 80.3399 93.4727 80.4651 93.4727 80.6154L93.4226 80.8658L89.8164 92.4609C89.7496 92.6613 89.6494 92.8199 89.5158 92.9368C89.399 93.0369 89.2237 93.087 88.9899 93.087H86.736C86.3019 93.087 86.0264 92.8783 85.9096 92.4609L83.6056 85.599L81.3016 92.4609C81.1847 92.8783 80.9092 93.087 80.4751 93.087H78.2212Z" stroke="#C78825" stroke-width="6" stroke-linejoin="round" mask="url(#path-5-outside-1)"/>
<path d="M103.537 93.3375C101.868 93.3375 100.574 92.7782 99.6557 91.6595V92.4609C99.6557 92.6279 99.5973 92.7782 99.4804 92.9117C99.3635 93.0286 99.2133 93.087 99.0296 93.087H96.1997C96.0327 93.087 95.8825 93.0286 95.7489 92.9117C95.6321 92.7782 95.5736 92.6279 95.5736 92.4609V75.9322C95.5736 75.7486 95.6321 75.5983 95.7489 75.4815C95.8825 75.3646 96.0327 75.3062 96.1997 75.3062H99.255C99.4387 75.3062 99.5889 75.3646 99.7058 75.4815C99.8227 75.5983 99.8811 75.7486 99.8811 75.9322V81.2915C100.816 80.3065 102.035 79.814 103.537 79.814C105.157 79.814 106.434 80.3399 107.369 81.3917C108.304 82.4435 108.805 83.871 108.872 85.6742C108.888 85.8912 108.897 86.1917 108.897 86.5757C108.897 86.943 108.888 87.2352 108.872 87.4522C108.788 89.3222 108.287 90.7747 107.369 91.8098C106.451 92.8282 105.174 93.3375 103.537 93.3375ZM102.185 89.9816C102.97 89.9816 103.529 89.7479 103.863 89.2804C104.214 88.8129 104.414 88.1702 104.464 87.3521C104.497 87.0182 104.514 86.7594 104.514 86.5757C104.514 86.3921 104.497 86.1333 104.464 85.7994C104.414 84.9813 104.214 84.3385 103.863 83.871C103.529 83.4035 102.97 83.1698 102.185 83.1698C101.45 83.1698 100.891 83.3952 100.507 83.846C100.123 84.2968 99.9145 84.8644 99.8811 85.5489L99.8561 86.4755L99.8811 87.4272C99.9312 88.1785 100.132 88.7962 100.482 89.2804C100.849 89.7479 101.417 89.9816 102.185 89.9816Z" stroke="#C78825" stroke-width="6" stroke-linejoin="round" mask="url(#path-5-outside-1)"/>
<path d="M111.999 93.087C111.832 93.087 111.681 93.0286 111.548 92.9117C111.431 92.7782 111.373 92.6279 111.373 92.4609V75.9322C111.373 75.7486 111.431 75.5983 111.548 75.4815C111.681 75.3646 111.832 75.3062 111.999 75.3062H115.204C115.388 75.3062 115.538 75.3646 115.655 75.4815C115.772 75.5983 115.83 75.7486 115.83 75.9322V81.5169C116.832 80.3816 118.151 79.814 119.787 79.814C120.755 79.814 121.615 80.031 122.367 80.4651C123.135 80.8992 123.736 81.542 124.17 82.3935C124.604 83.2449 124.821 84.2717 124.821 85.4738V92.4609C124.821 92.6279 124.762 92.7782 124.646 92.9117C124.529 93.0286 124.378 93.087 124.195 93.087H120.964C120.797 93.087 120.647 93.0286 120.513 92.9117C120.397 92.7782 120.338 92.6279 120.338 92.4609V85.6241C120.338 84.8394 120.146 84.2383 119.762 83.8209C119.395 83.3868 118.852 83.1698 118.134 83.1698C117.416 83.1698 116.849 83.3868 116.431 83.8209C116.031 84.2383 115.83 84.8394 115.83 85.6241V92.4609C115.83 92.6446 115.772 92.7949 115.655 92.9117C115.538 93.0286 115.388 93.087 115.204 93.087H111.999Z" stroke="#C78825" stroke-width="6" stroke-linejoin="round" mask="url(#path-5-outside-1)"/>
</svg>
