<svg width="32" height="32" viewBox="0 0 32 32" fill="none" xmlns="http://www.w3.org/2000/svg">
<path d="M11.8783 0C13.8509 0 15.6377 0.515437 17.2386 1.54631C18.8395 2.54855 20.0974 3.95168 21.0122 5.7557C21.9556 7.55973 22.4274 9.60716 22.4274 11.898C22.4274 14.1888 21.9699 16.2506 21.0551 18.0832C20.1403 19.8872 18.8824 21.3047 17.2815 22.3356C15.7092 23.3378 13.9653 23.8389 12.0499 23.8389C10.6776 23.8389 9.37689 23.5669 8.14761 23.0228C6.94691 22.4501 5.94632 21.7629 5.14586 20.9611V29.3799C5.14586 30.1244 4.90286 30.74 4.41686 31.2268C3.93086 31.7423 3.31622 32 2.57293 32C1.82964 32 1.21499 31.7566 0.728996 31.2698C0.242998 30.783 0 30.153 0 29.3799V3.04966C0 2.30514 0.242998 1.68949 0.728996 1.20268C1.21499 0.687248 1.82964 0.429529 2.57293 0.429529C3.31622 0.429529 3.93086 0.687248 4.41686 1.20268C4.90286 1.68949 5.14586 2.30514 5.14586 3.04966V3.22148C5.83197 2.36242 6.78967 1.6179 8.01896 0.987919C9.24824 0.329306 10.5347 0 11.8783 0ZM11.2351 19.1141C13.0648 19.1141 14.5656 18.4268 15.7377 17.0524C16.9099 15.6779 17.4959 13.9597 17.4959 11.898C17.4959 9.83624 16.9099 8.13244 15.7377 6.78658C14.5942 5.41208 13.0933 4.72483 11.2351 4.72483C9.37689 4.72483 7.86172 5.41208 6.68961 6.78658C5.5175 8.13244 4.93144 9.83624 4.93144 11.898C4.93144 13.9597 5.5175 15.6779 6.68961 17.0524C7.86172 18.4268 9.37689 19.1141 11.2351 19.1141Z" fill="#FE346E"/>
</svg>
